<?xml version="1.0" encoding="utf-8"?>
<!-- Generator: Adobe Illustrator 16.0.0, SVG Export Plug-In . SVG Version: 6.00 Build 0)  -->
<!DOCTYPE svg PUBLIC "-//W3C//DTD SVG 1.0//EN" "http://www.w3.org/TR/2001/REC-SVG-20010904/DTD/svg10.dtd">
<svg version="1.0" id="Layer_1" xmlns="http://www.w3.org/2000/svg" xmlns:xlink="http://www.w3.org/1999/xlink" x="0px" y="0px"
	 width="612px" height="792px" viewBox="0 0 612 792" enable-background="new 0 0 612 792" xml:space="preserve">
<g>
	<g>
		<path fill="#010101" d="M248.666,279.625h118.146c8.434,0,15.995-7.561,15.995-16.878v-67.511c0-9.317-7.562-16.878-16.878-16.878
			H247.784c-9.317,0-16.878,7.561-16.878,16.878v67.511C230.906,272.064,238.467,279.625,248.666,279.625z M264.662,212.114h84.389
			v33.755h-84.389V212.114z"/>
		<path fill="#010101" d="M178.729,555.104L154,579.832V167c0-10.557-8.568-11.596-19.125-11.596S115.75,156.443,115.75,167v412.832
			l-24.729-24.729c-7.459-7.468-12.192-2.673-19.651,4.795c-7.468,7.469-14.86,14.779-7.392,22.248l57.375,57.375
			c3.729,3.739,8.625,5.604,13.521,5.604s9.792-1.864,13.521-5.604l57.375-57.375c7.468-7.469,4.528-14.779-2.94-22.248
			C195.373,552.431,186.188,547.636,178.729,555.104z"/>
		<path fill="#010101" d="M253.143,414.625h185.649c9.316,0,16.878-7.562,16.878-16.878v-67.509c0-9.316-7.562-16.877-16.878-16.877
			H253.143c-9.316,0-16.877,7.561-16.877,16.877v67.509C236.265,407.063,243.826,414.625,253.143,414.625z M270.02,347.116h151.896
			v33.754H270.02V347.116z"/>
		<path fill="#010101" d="M505.565,451.875H264.821c-9.493,0-17.196,7.704-17.196,17.196v68.784c0,9.491,7.704,17.195,17.196,17.195
			h240.744c9.492,0,17.196-7.704,17.196-17.195v-68.784C522.762,459.579,515.058,451.875,505.565,451.875z M488.369,520.659H282.017
			v-34.393h206.352V520.659z"/>
	</g>
</g>
<g>
</g>
<g>
</g>
<g>
</g>
<g>
</g>
<g>
</g>
<g>
</g>
</svg>
