<svg viewBox="0 0 250 250" xmlns="http://www.w3.org/2000/svg" xml:space="preserve" style="fill-rule:evenodd;clip-rule:evenodd;stroke-linejoin:round;stroke-miterlimit:2">
	<path d="M108.934 4.487a33.994 33.994 0 0 1 31.622 0 1759.95 1759.95 0 0 1 82.693 46.518 33.996 33.996 0 0 1 16.467 28.136 1661.25 1661.25 0 0 1 0 91.657 33.995 33.995 0 0 1-16.467 28.136 1759.968 1759.968 0 0 1-82.693 46.519 34 34 0 0 1-31.622 0 1759.968 1759.968 0 0 1-82.693-46.519 33.995 33.995 0 0 1-16.467-28.136 1661.25 1661.25 0 0 1 0-91.657 33.997 33.997 0 0 1 16.468-28.136 1759.412 1759.412 0 0 1 82.692-46.518Z" style="fill:#074d39"/>
	<path d="M113.135 88.719h34.832c2.486 0 4.716-2.229 4.716-4.976V63.84a4.978 4.978 0 0 0-4.976-4.976h-34.832a4.977 4.977 0 0 0-4.976 4.976v19.903c0 2.747 2.229 4.976 5.236 4.976Zm4.716-19.903h24.88v9.951h-24.88v-9.951Zm-25.335 101.12-7.29 7.29V55.515c0-3.112-2.526-3.419-5.639-3.419-3.112 0-5.638.307-5.638 3.419v121.711l-7.291-7.291c-2.199-2.201-3.594-.788-5.793 1.414-2.202 2.202-4.381 4.357-2.18 6.559l16.916 16.915a5.608 5.608 0 0 0 3.986 1.653c1.443 0 2.887-.55 3.986-1.653l16.916-16.915c2.201-2.202 1.334-4.357-.867-6.559-2.199-2.201-4.907-3.615-7.106-1.413Zm21.939-41.416h54.733a4.978 4.978 0 0 0 4.976-4.976v-19.903a4.977 4.977 0 0 0-4.976-4.976h-54.733a4.977 4.977 0 0 0-4.976 4.976v19.903a4.978 4.978 0 0 0 4.976 4.976Zm4.976-19.903h44.782v9.951h-44.782v-9.951Zm69.443 30.885h-70.976a5.071 5.071 0 0 0-5.07 5.069v20.279a5.072 5.072 0 0 0 5.07 5.07h70.976a5.073 5.073 0 0 0 5.07-5.07v-20.279a5.071 5.071 0 0 0-5.07-5.069Zm-5.07 20.279h-60.836v-10.14h60.836v10.14Z" style="fill:#fff;fill-rule:nonzero"/>
</svg>
